# WaveFront *.obj file (generated by Autodesk ATF)

mtllib wavemaker.mtl

g wavemaker

v -13.251039 0.250000 1.749378
v -13.251039 0.250000 1.300097
v -13.251039 0.250000 0.850816
v -13.251039 0.250000 0.401535
v -13.251039 -0.250000 0.401535
v -13.251039 -0.250000 0.850816
v -13.251039 -0.250000 1.300097
v -13.251039 -0.250000 1.749378
v -13.438279 0.250000 0.738496
v -13.625520 0.250000 1.075457
v -13.812760 0.250000 1.412418
v -14.000000 0.250000 1.749378
v -14.000000 -0.250000 1.749378
v -13.812760 -0.250000 1.412418
v -13.625520 -0.250000 1.075457
v -13.438279 -0.250000 0.738496
v -13.625520 0.250000 1.749378
v -13.625520 -0.250000 1.749378
v -13.251039 -0.250000 0.000000
v -13.251039 0.250000 0.000000
v -13.000000 0.250000 0.000000
v -13.000000 -0.250000 0.000000
v -13.445525 0.250000 0.350000
v -13.640011 0.250000 0.700000
v -13.834496 0.250000 1.050000
v -14.028982 0.250000 1.400000
v -14.223468 0.250000 1.750000
v -14.486734 0.250000 1.750000
v -14.750000 0.250000 1.750000
v -14.750000 0.250000 2.000000
v -14.312500 0.250000 2.000000
v -13.875000 0.250000 2.000000
v -13.437500 0.250000 2.000000
v -13.000000 0.250000 2.000000
v -13.000000 0.250000 1.500000
v -13.000000 0.250000 1.000000
v -13.000000 0.250000 0.500000
v -13.437500 0.250000 0.352126
v -13.437500 0.250000 0.500000
v -13.875000 0.250000 1.500000
v -13.445525 -0.250000 0.350000
v -13.640011 -0.250000 0.700000
v -13.834496 -0.250000 1.050000
v -14.028982 -0.250000 1.400000
v -14.223468 -0.250000 1.750000
v -14.486734 -0.250000 1.750000
v -14.750000 -0.250000 1.750000
v -14.750000 -0.250000 2.000000
v -13.000000 -0.250000 0.500000
v -13.000000 -0.250000 1.000000
v -13.000000 -0.250000 1.500000
v -13.000000 -0.250000 2.000000
v -13.437500 -0.250000 2.000000
v -13.875000 -0.250000 2.000000
v -14.312500 -0.250000 2.000000
v -13.875000 -0.250000 1.500000
v -13.437500 -0.250000 0.500000
v -13.437500 -0.250000 0.352126
vt -134.784353 0.000000 0.000000
vt -89.856235 0.000000 0.000000
vt -134.784353 50.000000 0.000000
vt -89.856235 50.000000 0.000000
vt -44.928118 0.000000 0.000000
vt -44.928118 50.000000 0.000000
vt -0.000000 0.000000 0.000000
vt -0.000000 50.000000 0.000000
vt -154.195469 0.000000 0.000000
vt -115.646602 0.000000 0.000000
vt -154.195469 50.000000 0.000000
vt -115.646602 50.000000 0.000000
vt -77.097735 0.000000 0.000000
vt -77.097735 50.000000 0.000000
vt -38.548867 0.000000 0.000000
vt -38.548867 50.000000 0.000000
vt -0.000000 0.000000 0.000000
vt -0.000000 50.000000 0.000000
vt -74.896068 0.000000 0.000000
vt -37.448034 0.000000 0.000000
vt -74.896068 50.000000 0.000000
vt -37.448034 50.000000 0.000000
vt -0.000000 0.000000 0.000000
vt -0.000000 50.000000 0.000000
vt -24.896068 25.000000 0.000000
vt -50.000000 25.000000 0.000000
vt -24.896068 -25.000000 0.000000
vt -50.000000 -25.000000 0.000000
vt 44.552498 35.000000 0.000000
vt 43.750000 35.212647 0.000000
vt 25.103932 0.000000 0.000000
vt 25.103932 40.153495 0.000000
vt 0.000000 0.000000 0.000000
vt 0.000000 50.000000 0.000000
vt 25.103932 85.081612 0.000000
vt 0.000000 100.000000 0.000000
vt 25.103932 130.009730 0.000000
vt 0.000000 150.000000 0.000000
vt 25.103932 174.937847 0.000000
vt 0.000000 200.000000 0.000000
vt 43.750000 200.000000 0.000000
vt 62.551966 174.937847 0.000000
vt 87.500000 200.000000 0.000000
vt 100.000000 174.937847 0.000000
vt 131.250000 200.000000 0.000000
vt 122.346762 175.000000 0.000000
vt 148.673381 175.000000 0.000000
vt 43.750000 50.000000 0.000000
vt 64.001064 70.000000 0.000000
vt 43.827949 73.849583 0.000000
vt 62.551966 107.545671 0.000000
vt 83.449630 105.000000 0.000000
vt 81.275983 141.241759 0.000000
vt 102.898196 140.000000 0.000000
vt 87.500000 150.000000 0.000000
vt 175.000000 175.000000 0.000000
vt 175.000000 200.000000 0.000000
vt 0.000000 0.000000 0.000000
vt 40.040563 0.000000 0.000000
vt 0.000000 50.000000 0.000000
vt 40.040563 50.000000 0.000000
vt 80.081127 0.000000 0.000000
vt 80.081127 50.000000 0.000000
vt 120.121690 0.000000 0.000000
vt 120.121690 50.000000 0.000000
vt 160.162253 0.000000 0.000000
vt 160.162253 50.000000 0.000000
vt 200.202817 0.000000 0.000000
vt 200.202817 50.000000 0.000000
vt 0.000000 0.000000 0.000000
vt 26.326619 0.000000 0.000000
vt 0.000000 50.000000 0.000000
vt 26.326619 50.000000 0.000000
vt 52.653238 0.000000 0.000000
vt 52.653238 50.000000 0.000000
vt 0.000000 0.000000 0.000000
vt 25.000000 0.000000 0.000000
vt 0.000000 50.000000 0.000000
vt 25.000000 50.000000 0.000000
vt -2.898196 140.000000 0.000000
vt 0.000000 174.937847 0.000000
vt -22.346762 175.000000 0.000000
vt -31.250000 200.000000 0.000000
vt -48.673381 175.000000 0.000000
vt -75.000000 200.000000 0.000000
vt -75.000000 175.000000 0.000000
vt 16.550370 105.000000 0.000000
vt 18.724017 141.241759 0.000000
vt 12.500000 150.000000 0.000000
vt 37.448034 107.545671 0.000000
vt 35.998936 70.000000 0.000000
vt 56.172051 73.849583 0.000000
vt 56.250000 50.000000 0.000000
vt 74.896068 40.153495 0.000000
vt 56.250000 35.212647 0.000000
vt 74.896068 0.000000 0.000000
vt 55.447502 35.000000 0.000000
vt 100.000000 0.000000 0.000000
vt 100.000000 50.000000 0.000000
vt 74.896068 85.081612 0.000000
vt 100.000000 100.000000 0.000000
vt 74.896068 130.009730 0.000000
vt 100.000000 150.000000 0.000000
vt 74.896068 174.937847 0.000000
vt 100.000000 200.000000 0.000000
vt 56.250000 200.000000 0.000000
vt 37.448034 174.937847 0.000000
vt 12.500000 200.000000 0.000000
vt 0.000000 0.000000 0.000000
vt 50.000000 0.000000 0.000000
vt 0.000000 50.000000 0.000000
vt 50.000000 50.000000 0.000000
vt 0.000000 100.000000 0.000000
vt 50.000000 100.000000 0.000000
vt 0.000000 150.000000 0.000000
vt 50.000000 150.000000 0.000000
vt 0.000000 200.000000 0.000000
vt 50.000000 200.000000 0.000000
vt 50.000000 25.000000 0.000000
vt 6.250000 25.000000 0.000000
vt 50.000000 -25.000000 0.000000
vt 6.250000 -25.000000 0.000000
vt -37.500000 25.000000 0.000000
vt -37.500000 -25.000000 0.000000
vt -81.250000 25.000000 0.000000
vt -81.250000 -25.000000 0.000000
vt -125.000000 25.000000 0.000000
vt -125.000000 -25.000000 0.000000
vn -100.000000 0.000000 0.000000
vn -100.000000 0.000000 0.000000
vn -100.000000 0.000000 0.000000
vn -100.000000 0.000000 0.000000
vn -100.000000 0.000000 0.000000
vn -100.000000 0.000000 0.000000
vn -100.000000 0.000000 0.000000
vn -100.000000 0.000000 0.000000
vn 87.411357 0.000000 48.572158
vn 87.411357 0.000000 48.572158
vn 87.411357 0.000000 48.572158
vn 87.411357 0.000000 48.572158
vn 87.411357 0.000000 48.572158
vn 87.411357 0.000000 48.572158
vn 87.411357 0.000000 48.572158
vn 87.411357 0.000000 48.572158
vn 87.411357 0.000000 48.572158
vn 87.411357 0.000000 48.572158
vn 0.000000 0.000000 -100.000000
vn 0.000000 0.000000 -100.000000
vn 0.000000 0.000000 -100.000000
vn 0.000000 0.000000 -100.000000
vn 0.000000 0.000000 -100.000000
vn 0.000000 0.000000 -100.000000
vn 0.000000 0.000000 -100.000000
vn 0.000000 0.000000 -100.000000
vn 0.000000 0.000000 -100.000000
vn 0.000000 0.000000 -100.000000
vn 0.000000 100.000000 0.000000
vn 0.000000 100.000000 0.000000
vn 0.000000 100.000000 0.000000
vn 0.000000 100.000000 0.000000
vn 0.000000 100.000000 0.000000
vn 0.000000 100.000000 0.000000
vn 0.000000 100.000000 0.000000
vn 0.000000 100.000000 0.000000
vn 0.000000 100.000000 0.000000
vn 0.000000 100.000000 0.000000
vn 0.000000 100.000000 0.000000
vn 0.000000 100.000000 0.000000
vn 0.000000 100.000000 0.000000
vn 0.000000 100.000000 0.000000
vn 0.000000 100.000000 0.000000
vn 0.000000 100.000000 0.000000
vn 0.000000 100.000000 0.000000
vn 0.000000 100.000000 0.000000
vn 0.000000 100.000000 0.000000
vn 0.000000 100.000000 0.000000
vn 0.000000 100.000000 0.000000
vn 0.000000 100.000000 0.000000
vn 0.000000 100.000000 0.000000
vn 0.000000 100.000000 0.000000
vn 0.000000 100.000000 0.000000
vn 0.000000 100.000000 0.000000
vn 0.000000 100.000000 0.000000
vn 0.000000 100.000000 0.000000
vn 0.000000 100.000000 0.000000
vn -87.411357 0.000000 -48.572158
vn -87.411357 0.000000 -48.572158
vn -87.411357 0.000000 -48.572158
vn -87.411357 0.000000 -48.572158
vn -87.411357 0.000000 -48.572158
vn -87.411357 0.000000 -48.572158
vn -87.411357 0.000000 -48.572158
vn -87.411357 0.000000 -48.572158
vn -87.411357 0.000000 -48.572158
vn -87.411357 0.000000 -48.572158
vn -87.411357 0.000000 -48.572158
vn -87.411357 0.000000 -48.572158
vn 0.000000 0.000000 -100.000000
vn 0.000000 0.000000 -100.000000
vn 0.000000 0.000000 -100.000000
vn 0.000000 0.000000 -100.000000
vn 0.000000 0.000000 -100.000000
vn 0.000000 0.000000 -100.000000
vn -100.000000 0.000000 0.000000
vn -100.000000 0.000000 0.000000
vn -100.000000 0.000000 0.000000
vn -100.000000 0.000000 0.000000
vn 0.000000 -100.000000 0.000000
vn 0.000000 -100.000000 0.000000
vn 0.000000 -100.000000 0.000000
vn 0.000000 -100.000000 0.000000
vn 0.000000 -100.000000 0.000000
vn 0.000000 -100.000000 0.000000
vn 0.000000 -100.000000 0.000000
vn 0.000000 -100.000000 0.000000
vn 0.000000 -100.000000 0.000000
vn 0.000000 -100.000000 0.000000
vn 0.000000 -100.000000 0.000000
vn 0.000000 -100.000000 0.000000
vn 0.000000 -100.000000 0.000000
vn 0.000000 -100.000000 0.000000
vn 0.000000 -100.000000 0.000000
vn 0.000000 -100.000000 0.000000
vn 0.000000 -100.000000 0.000000
vn 0.000000 -100.000000 0.000000
vn 0.000000 -100.000000 0.000000
vn 0.000000 -100.000000 0.000000
vn 0.000000 -100.000000 0.000000
vn 0.000000 -100.000000 0.000000
vn 0.000000 -100.000000 0.000000
vn 0.000000 -100.000000 0.000000
vn 0.000000 -100.000000 0.000000
vn 0.000000 -100.000000 0.000000
vn 0.000000 -100.000000 0.000000
vn 0.000000 -100.000000 0.000000
vn 0.000000 -100.000000 0.000000
vn 100.000000 0.000000 0.000000
vn 100.000000 0.000000 0.000000
vn 100.000000 0.000000 0.000000
vn 100.000000 0.000000 0.000000
vn 100.000000 0.000000 0.000000
vn 100.000000 0.000000 0.000000
vn 100.000000 0.000000 0.000000
vn 100.000000 0.000000 0.000000
vn 100.000000 0.000000 0.000000
vn 100.000000 0.000000 0.000000
vn 0.000000 0.000000 100.000000
vn 0.000000 0.000000 100.000000
vn 0.000000 0.000000 100.000000
vn 0.000000 0.000000 100.000000
vn 0.000000 0.000000 100.000000
vn 0.000000 0.000000 100.000000
vn 0.000000 0.000000 100.000000
vn 0.000000 0.000000 100.000000
vn 0.000000 0.000000 100.000000
vn 0.000000 0.000000 100.000000
usemtl 鋼_-_サテン
f 1/1/1 2/2/2 8/3/3
f 8/3/3 2/2/2 7/4/4
f 7/4/4 2/2/2 3/5/5
f 7/4/4 3/5/5 6/6/6
f 6/6/6 3/5/5 4/7/7
f 6/6/6 4/7/7 5/8/8
f 4/9/9 9/10/10 5/11/11
f 5/11/11 9/10/10 16/12/12
f 16/12/12 9/10/10 10/13/13
f 16/12/12 10/13/13 15/14/14
f 15/14/14 10/13/13 11/15/15
f 15/14/14 11/15/15 14/16/16
f 14/16/16 11/15/15 12/17/17
f 14/16/16 12/17/17 13/18/18
f 12/19/19 17/20/20 13/21/21
f 13/21/21 17/20/20 18/22/22
f 18/22/22 17/20/20 1/23/23
f 18/22/22 1/23/23 8/24/24
f 20/25/25 21/26/26 19/27/27
f 19/27/27 21/26/26 22/28/28
f 23/29/29 38/30/30 20/31/31
f 20/31/31 38/30/30 4/32/32
f 20/31/31 4/32/32 21/33/33
f 21/33/33 4/32/32 37/34/34
f 37/34/34 4/32/32 3/35/35
f 37/34/34 3/35/35 36/36/36
f 36/36/36 3/35/35 2/37/37
f 36/36/36 2/37/37 35/38/38
f 35/38/38 2/37/37 1/39/39
f 35/38/38 1/39/39 34/40/40
f 34/40/40 1/39/39 33/41/41
f 33/41/41 1/39/39 17/42/42
f 33/41/41 17/42/42 32/43/43
f 32/43/43 17/42/42 12/44/44
f 32/43/43 12/44/44 31/45/45
f 31/45/45 12/44/44 27/46/46
f 31/45/45 27/46/46 28/47/47
f 38/30/30 23/29/29 39/48/48
f 39/48/48 23/29/29 24/49/49
f 39/48/48 24/49/49 9/50/50
f 9/50/50 24/49/49 10/51/51
f 10/51/51 24/49/49 25/52/52
f 10/51/51 25/52/52 11/53/53
f 11/53/53 25/52/52 26/54/54
f 11/53/53 26/54/54 40/55/55
f 40/55/55 26/54/54 12/44/44
f 40/55/55 12/44/44 11/53/53
f 26/54/54 27/46/46 12/44/44
f 29/56/56 30/57/57 28/47/47
f 28/47/47 30/57/57 31/45/45
f 9/50/50 4/32/32 39/48/48
f 39/48/48 4/32/32 38/30/30
f 27/58/58 26/59/59 45/60/60
f 45/60/60 26/59/59 44/61/61
f 44/61/61 26/59/59 25/62/62
f 44/61/61 25/62/62 43/63/63
f 43/63/63 25/62/62 24/64/64
f 43/63/63 24/64/64 42/65/65
f 42/65/65 24/64/64 23/66/66
f 42/65/65 23/66/66 41/67/67
f 41/67/67 23/66/66 20/68/68
f 41/67/67 20/68/68 19/69/69
f 29/70/70 28/71/71 47/72/72
f 47/72/72 28/71/71 46/73/73
f 46/73/73 28/71/71 27/74/74
f 46/73/73 27/74/74 45/75/75
f 30/76/76 29/77/77 48/78/78
f 48/78/78 29/77/77 47/79/79
f 44/80/80 13/81/81 45/82/82
f 45/82/82 13/81/81 55/83/83
f 45/82/82 55/83/83 46/84/84
f 46/84/84 55/83/83 48/85/85
f 46/84/84 48/85/85 47/86/86
f 43/87/87 14/88/88 44/80/80
f 44/80/80 14/88/88 56/89/89
f 44/80/80 56/89/89 13/81/81
f 13/81/81 56/89/89 14/88/88
f 14/88/88 43/87/87 15/90/90
f 15/90/90 43/87/87 42/91/91
f 15/90/90 42/91/91 16/92/92
f 16/92/92 42/91/91 57/93/93
f 16/92/92 57/93/93 5/94/94
f 5/94/94 57/93/93 58/95/95
f 5/94/94 58/95/95 19/96/96
f 19/96/96 58/95/95 41/97/97
f 41/97/97 58/95/95 57/93/93
f 41/97/97 57/93/93 42/91/91
f 19/96/96 22/98/98 5/94/94
f 5/94/94 22/98/98 49/99/99
f 5/94/94 49/99/99 6/100/100
f 6/100/100 49/99/99 50/101/101
f 6/100/100 50/101/101 7/102/102
f 7/102/102 50/101/101 51/103/103
f 7/102/102 51/103/103 8/104/104
f 8/104/104 51/103/103 52/105/105
f 8/104/104 52/105/105 53/106/106
f 8/104/104 53/106/106 18/107/107
f 18/107/107 53/106/106 54/108/108
f 18/107/107 54/108/108 13/81/81
f 13/81/81 54/108/108 55/83/83
f 22/109/109 21/110/110 49/111/111
f 49/111/111 21/110/110 37/112/112
f 49/111/111 37/112/112 50/113/113
f 50/113/113 37/112/112 36/114/114
f 50/113/113 36/114/114 51/115/115
f 51/115/115 36/114/114 35/116/116
f 51/115/115 35/116/116 52/117/117
f 52/117/117 35/116/116 34/118/118
f 34/119/119 33/120/120 52/121/121
f 52/121/121 33/120/120 53/122/122
f 53/122/122 33/120/120 32/123/123
f 53/122/122 32/123/123 54/124/124
f 54/124/124 32/123/123 31/125/125
f 54/124/124 31/125/125 55/126/126
f 55/126/126 31/125/125 30/127/127
f 55/126/126 30/127/127 48/128/128
# 58 vertices
# 128 texture params
# 128 normals
# 116 facets

# 1 groups
